<svg viewBox="0 0 10.6523 17.7553" xmlns="http://www.w3.org/2000/svg" xmlns:xlink="http://www.w3.org/1999/xlink" width="10.652344" height="17.755280" fill="none" customFrame="#000000">
	<g id="Group 388">
		<path id="Shape" d="M7.24714 12.9023L9.90059 15.4639C10.4442 15.9875 10.4442 16.8379 9.90059 17.3621C9.35757 17.8863 8.47745 17.8863 7.935 17.3621L5.32614 14.8449L2.71955 17.3621C2.44776 17.6239 2.09162 17.7549 1.73548 17.7549C1.3799 17.7549 1.02433 17.6239 0.752539 17.3621C0.209523 16.8379 0.209523 15.9881 0.751971 15.4639L3.4057 12.9023C2.43952 12.6898 1.50771 12.3203 0.649445 11.8005C-7.15852e-05 11.4052 -0.195182 10.577 0.214067 9.94946C0.622181 9.32112 1.48044 9.13196 2.13109 9.52728C4.07425 10.7072 6.57746 10.7075 8.52175 9.52728C9.1724 9.13196 10.0304 9.32112 10.4393 9.94946C10.8486 10.5764 10.6529 11.4052 10.0034 11.8005C9.14514 12.3208 8.21332 12.6898 7.24714 12.9023Z" fill="rgb(255,255,255)" fillOpacity="0.800000012" fillRule="nonzero" />
		<path id="Combined Shape" d="M0.568359 4.58201C0.568359 7.10798 2.69725 9.1627 5.31492 9.1627C7.93315 9.1627 10.0615 7.10798 10.0615 4.58201C10.0615 2.05521 7.93315 -6.10352e-05 5.31492 -6.10352e-05C2.69725 -6.10352e-05 0.568359 2.05521 0.568359 4.58201ZM7.28015 4.58152C7.28015 3.53538 6.3986 2.68471 5.31484 2.68471C4.23193 2.68471 3.34953 3.53538 3.34953 4.58152C3.34953 5.62684 4.23193 6.47806 5.31484 6.47806C6.3986 6.47806 7.28015 5.62684 7.28015 4.58152Z" fill="rgb(255,255,255)" fillOpacity="0.800000012" fillRule="evenodd" />
	</g>
</svg>
