<svg viewBox="0 0 20 20" xmlns="http://www.w3.org/2000/svg" xmlns:xlink="http://www.w3.org/1999/xlink" width="20.000000" height="20.000000" fill="none" customFrame="#000000">
	<path id="Vector" d="M10 2C12.7486 2 15.1749 3.38626 16.6156 5.5L14 5.5L14 7.5L20 7.5L20 1.5L18 1.5L18 3.99936C16.1762 1.57166 13.2724 0 10 0C4.47715 0 0 4.47715 0 10L2 10C2 5.58172 5.58172 2 10 2ZM18 10C18 14.4183 14.4183 18 10 18C7.25144 18 4.82508 16.6137 3.38443 14.5L6 14.5L6 12.5L0 12.5L0 18.5L2 18.5L2 16.0006C3.82381 18.4283 6.72764 20 10 20C15.5228 20 20 15.5228 20 10L18 10Z" fill="rgb(255,255,255)" fillRule="nonzero" />
</svg>
