<svg viewBox="0 0 16.4551 13.6277" xmlns="http://www.w3.org/2000/svg" xmlns:xlink="http://www.w3.org/1999/xlink" width="16.455078" height="13.627716" fill="none" customFrame="#000000">
	<path id="Shape" d="M0.248522 6.33893C1.93187 5.41169 3.81095 4.63781 5.56667 3.85997C8.58719 2.58593 11.6197 1.33397 14.6828 0.16841C15.2788 -0.0301902 16.3496 -0.22441 16.4546 0.65879C16.3972 1.90895 16.1606 3.15179 15.9984 4.39463C15.5866 7.12775 15.1107 9.85151 14.6466 12.5756C14.4867 13.483 13.35 13.9527 12.6227 13.3721C10.8748 12.1914 9.11339 11.0222 7.38779 9.81419C6.82253 9.23981 7.34669 8.41499 7.85153 8.00483C9.29117 6.58607 10.8179 5.38067 12.1823 3.88859C12.5504 2.99981 11.4629 3.74885 11.1043 3.97835C9.13337 5.33651 7.21073 6.77759 5.13281 7.97123C4.07141 8.55551 2.83433 8.05619 1.77341 7.73015C0.822158 7.33631 -0.571774 6.93953 0.248426 6.33899L0.248522 6.33893Z" fill="rgb(255,255,255)" fillOpacity="0.800000012" fillRule="nonzero" />
</svg>
