<svg viewBox="0 0 15.3594 11.04" xmlns="http://www.w3.org/2000/svg" xmlns:xlink="http://www.w3.org/1999/xlink" width="15.359375" height="11.040009" fill="none" customFrame="#000000">
	<path id="Subtract" d="M15.039 1.72393C14.8624 1.04533 14.3419 0.510956 13.681 0.329597C12.4832 0 7.68 0 7.68 0C7.68 0 2.87677 0 1.67895 0.329597C1.01804 0.510956 0.497542 1.04533 0.320902 1.72393C0 2.95382 0 5.52 0 5.52C0 5.52 0 8.08609 0.320902 9.31607C0.497542 9.99467 1.01804 10.529 1.67895 10.7105C2.87677 11.04 7.68 11.04 7.68 11.04C7.68 11.04 12.4832 11.04 13.681 10.7105C14.3419 10.529 14.8624 9.99467 15.039 9.31607C15.36 8.08609 15.36 5.52 15.36 5.52C15.36 5.52 15.36 2.95382 15.039 1.72393ZM6.23997 3.36023L6.23997 8.16023L10.08 5.76033L6.23997 3.36023Z" fill="rgb(255,255,255)" fillOpacity="0.800000012" fillRule="evenodd" />
</svg>
