<svg viewBox="0 0 348.148 73.5" xmlns="http://www.w3.org/2000/svg" xmlns:xlink="http://www.w3.org/1999/xlink" width="348.148438" height="73.500000" fill="none" customFrame="#000000">
	<path id="маруся" d="M108.145 3.44137C109.331 4.25129 110.42 5.20417 111.412 6.3C115.278 10.4333 117.212 16.2667 117.212 23.8L117.212 53L108.712 53L106.312 44.8C104.845 47.2667 102.678 49.4333 99.8117 51.3C99.6924 51.3749 99.5722 51.4483 99.451 51.5201C96.6611 53.1734 93.3813 54 89.6117 54C86.1451 54 83.0117 53.3 80.2117 51.9C77.4784 50.5 75.3451 48.5333 73.8117 46C72.2784 43.4667 71.5117 40.6 71.5117 37.4C71.5117 34.8315 72.0358 32.5341 73.0839 30.5078C74.0489 28.6421 75.4582 27.0061 77.3117 25.6C81.2451 22.6 86.9451 21.1 94.4117 21.1L105.612 21.1C105.348 17.6726 104.302 14.962 102.475 12.9682C102.454 12.9454 102.433 12.9226 102.412 12.9C100.612 10.8333 98.1784 9.8 95.1117 9.8C92.6451 9.8 90.5117 10.4 88.7117 11.6C86.9117 12.8 85.5784 14.2667 84.7117 16L74.1117 14.2C75.3784 9.8 77.9784 6.33334 81.9117 3.8C82.7352 3.27845 83.5842 2.81058 84.4585 2.3964C87.8312 0.7988 91.5823 0 95.7117 0C100.639 0 104.783 1.14712 108.145 3.44137ZM129.688 1L129.688 73.5L141.188 73.5L141.188 45.1C143.254 47.6333 145.921 49.7667 149.188 51.5C152.454 53.1667 156.188 54 160.387 54C164.246 54 167.791 53.2875 171.021 51.8624L171.023 51.8617C171.866 51.4896 172.687 51.0691 173.488 50.6C175.196 49.569 176.735 48.3687 178.106 46.9992L178.11 46.9952C179.838 45.2663 181.298 43.2679 182.488 41C184.688 36.8667 185.788 32.2 185.788 27C185.788 21.8 184.688 17.1667 182.488 13.1C181.167 10.5407 179.513 8.3393 177.528 6.49568C176.307 5.36176 174.96 4.3632 173.488 3.5C172.541 2.92874 171.564 2.4274 170.558 1.996L170.557 1.99593L170.557 1.99588C167.452 0.665292 164.063 0 160.387 0C156.054 0 152.221 0.933333 148.887 2.8C145.554 4.6 142.821 6.8 140.688 9.4L138.288 1L129.688 1ZM259.221 50.6C263.354 52.8667 268.021 54 273.221 54C276.88 54 280.318 53.4022 283.532 52.2066L283.536 52.2052C285.298 51.5497 286.993 50.7146 288.621 49.7C290.596 48.4695 292.318 47.0178 293.79 45.3448L293.795 45.3382L293.8 45.3328L293.802 45.3307C295.752 43.1096 297.258 40.4994 298.321 37.5L287.521 35.7C286.321 38.0333 284.521 39.9333 282.121 41.4C279.721 42.8 276.988 43.5 273.921 43.5C269.254 43.5 265.454 41.9667 262.521 38.9C259.588 35.8333 258.121 31.8667 258.121 27C258.121 22.1333 259.588 18.1667 262.521 15.1C265.454 12.0333 269.254 10.5 273.921 10.5C276.854 10.5 279.488 11.2 281.821 12.6C283.682 13.6856 285.162 15.0319 286.262 16.6387L286.263 16.6403C286.581 17.105 286.867 17.5916 287.121 18.1L297.921 16.3C296.054 11.1 292.888 7.1 288.421 4.3C284.021 1.43334 278.954 0 273.221 0C268.021 0 263.354 1.16667 259.221 3.5C255.088 5.76667 251.854 8.96667 249.521 13.1C249.335 13.433 249.157 13.7699 248.987 14.1105L248.984 14.1162C247.075 17.9336 246.121 22.2282 246.121 27C246.121 31.596 247.006 35.7755 248.777 39.5382C249.01 40.0327 249.258 40.5199 249.521 41C251.854 45.0667 255.088 48.2667 259.221 50.6ZM0 53L11 53L11 14.4L12.6 14.4L25.6 53L35.3 53L48.9 14.4L50.5 14.4L50.5 53L61.5 53L61.5 1L44 1L31.5 36.7L29.9 36.7L17.9 1L0 1L0 53ZM230.848 1L242.548 1L221.248 59.5C219.448 64.4333 217.114 68 214.248 70.2C211.448 72.4 207.681 73.5 202.948 73.5L195.048 73.5L194.048 63L203.748 63C205.681 63 207.148 62.5667 208.148 61.7C209.214 60.9 210.114 59.4667 210.848 57.4L211.448 55.8L188.348 1L200.648 1L215.948 38.5L217.548 38.5L230.848 1ZM348.148 53L348.148 1L325.048 1C321.181 1 317.714 1.76667 314.648 3.3C311.581 4.76667 309.181 6.83333 307.448 9.5C306.937 10.285 306.502 11.1018 306.142 11.9504L306.142 11.9507L306.142 11.9513L306.136 11.9654C305.277 13.9952 304.848 16.2068 304.848 18.6C304.848 22.2667 305.814 25.5 307.748 28.3C309.681 31.1 312.348 33.1667 315.748 34.5L303.348 53L316.448 53L327.448 36.3L336.648 36.3L336.648 53L348.148 53ZM169.288 39.1C166.288 42.1667 162.387 43.7 157.587 43.7C152.721 43.7 148.754 42.1667 145.688 39.1C144.865 38.2407 144.155 37.3137 143.558 36.3189L143.556 36.3162C141.977 33.6845 141.188 30.5791 141.188 27C141.188 23.3611 142.004 20.23 143.636 17.6066L143.638 17.6038C144.218 16.6717 144.901 15.8038 145.688 15C148.754 11.8667 152.721 10.3 157.587 10.3C162.387 10.3 166.288 11.8667 169.288 15C170.074 15.8038 170.757 16.6717 171.337 17.6038L171.339 17.6066C172.971 20.23 173.788 23.3611 173.788 27C173.788 30.5791 172.998 33.6845 171.419 36.3162L171.417 36.3189C170.82 37.3137 170.11 38.2407 169.288 39.1ZM336.648 11L336.648 26.3L325.048 26.3C322.764 26.3 320.866 25.7599 319.354 24.6797C319.144 24.5302 318.942 24.3703 318.748 24.2C317.148 22.8 316.348 20.9333 316.348 18.6C316.348 16.3333 317.148 14.5 318.748 13.1C318.942 12.9297 319.144 12.7698 319.354 12.6203C320.866 11.5401 322.764 11 325.048 11L336.648 11ZM92.3117 44.3C96.3117 44.3 99.5451 43 102.012 40.4C104.478 37.8 105.712 34.3667 105.712 30.1L94.8117 30.1C88.9812 30.1 85.3298 31.3665 83.8577 33.8996C83.3604 34.7552 83.1117 35.7554 83.1117 36.9C83.1117 39.1667 83.9451 40.9667 85.6117 42.3C87.2784 43.6333 89.5117 44.3 92.3117 44.3Z" fill="rgb(0,0,0)" fillRule="evenodd" />
</svg>
